<svg
        viewBox="0 0 672 1206"
        fill="none"
        xmlns="http://www.w3.org/2000/svg"
      >
        <path
          d="M633.053 3C632.689 302.067 567.368 414.14 502.788 470.008C486.553 484.052 470.3 494.602 454.994 503.704C449.78 506.805 444.646 509.753 439.652 512.622C430.07 518.125 421.005 523.332 412.882 528.746C400.455 537.027 389.883 546.005 382.443 557.775C374.978 569.583 370.784 584.011 370.784 603C370.784 621.989 374.978 636.417 382.443 648.226C389.883 659.996 400.455 668.973 412.882 677.254C421.005 682.668 430.07 687.875 439.652 693.379C444.646 696.247 449.78 699.195 454.994 702.296C470.3 711.398 486.553 721.948 502.788 735.992C567.368 791.86 632.689 903.933 633.053 1203H38.9488C39.3119 903.933 104.634 791.86 169.214 735.992C185.449 721.948 201.701 711.398 217.007 702.296C222.221 699.195 227.356 696.247 232.35 693.379C241.931 687.875 250.996 682.668 259.12 677.254C271.547 668.973 282.118 659.996 289.559 648.226C297.024 636.417 301.217 621.989 301.217 603C301.217 584.011 297.024 569.583 289.558 557.775C282.118 546.005 271.546 537.027 259.12 528.746C250.996 523.332 241.931 518.125 232.349 512.622C227.355 509.753 222.221 506.805 217.006 503.704C201.7 494.602 185.448 484.052 169.213 470.008C104.633 414.14 39.3106 302.067 38.9488 3H633.053Z"
          fill="#00E0FF"
          fill-opacity="0.2"
          stroke="#00E0FF"
          stroke-width="5"
          stroke-linejoin="round"
        />
        <path
          d="M651.5 3.03821H20.5C10.835 3.03821 3 10.906 3 20.6114V28.6449C3 38.3503 10.835 46.2181 20.5 46.2181H651.5C661.165 46.2181 669 38.3503 669 28.6449V20.6114C669 10.906 661.165 3.03821 651.5 3.03821Z"
          fill="black"
          stroke="#00E0FF"
          stroke-width="5"
          stroke-linejoin="round"
        />
        <path
          d="M651.5 1159.7H20.5C10.835 1159.7 3 1167.57 3 1177.27V1185.31C3 1195.01 10.835 1202.88 20.5 1202.88H651.5C661.165 1202.88 669 1195.01 669 1185.31V1177.27C669 1167.57 661.165 1159.7 651.5 1159.7Z"
          fill="black"
          stroke="#00E0FF"
          stroke-width="5"
          stroke-linejoin="round"
        />
        <path
          fill-rule="evenodd"
          clip-rule="evenodd"
          d="M38.9488 3H3V20.6115C3 10.906 10.835 3.03821 20.5 3.03821H38.9489L38.9488 3ZM3 1177.27V28.6449C3 38.3503 10.835 46.2181 20.5 46.2181H39.476C45.8013 313.068 107.842 416.917 169.213 470.008C185.448 484.052 201.7 494.602 217.006 503.704C222.167 506.773 227.248 509.692 232.193 512.533L232.349 512.622C241.931 518.125 250.996 523.332 259.12 528.746C271.546 537.027 282.118 546.005 289.558 557.775C297.024 569.583 301.217 584.011 301.217 603C301.217 621.989 297.024 636.417 289.559 648.227C282.118 659.996 271.547 668.973 259.12 677.254C251.004 682.663 241.948 687.865 232.377 693.363L232.35 693.379L232.247 693.438C227.285 696.287 222.185 699.216 217.007 702.296C201.701 711.398 185.449 721.948 169.214 735.992C107.85 789.078 45.8153 892.911 39.4781 1159.7H20.5C10.835 1159.7 3 1167.57 3 1177.27ZM3 1185.31V1203L38.9488 1203C38.9488 1202.96 38.9489 1202.92 38.9489 1202.88H20.5C10.835 1202.88 3 1195.01 3 1185.31ZM633.053 1202.88C633.053 1202.92 633.053 1202.96 633.053 1203L669 1203V1185.31C669 1195.01 661.165 1202.88 651.5 1202.88H633.053ZM669 1177.27V28.6449C669 38.3503 661.165 46.2181 651.5 46.2181H632.525C626.198 313.068 564.159 416.917 502.788 470.008C486.553 484.052 470.3 494.602 454.994 503.704C449.837 506.771 444.759 509.689 439.817 512.528L439.807 512.533L439.652 512.622C430.07 518.125 421.005 523.332 412.882 528.746C400.455 537.027 389.883 546.005 382.443 557.775C374.978 569.583 370.784 584.011 370.784 603C370.784 621.989 374.978 636.417 382.443 648.227C389.883 659.996 400.455 668.973 412.882 677.254C421.001 682.665 430.061 687.87 439.638 693.371L439.643 693.373L439.652 693.379L439.668 693.388L439.694 693.402C444.674 696.263 449.794 699.203 454.994 702.296C470.3 711.398 486.553 721.948 502.788 735.992C564.152 789.078 626.186 892.911 632.524 1159.7H651.5C661.165 1159.7 669 1167.57 669 1177.27ZM669 3V20.6115C669 10.906 661.165 3.03821 651.5 3.03821H633.053L633.053 3H669Z"
          fill="black"
        />
      </svg>